<svg xmlns="http://www.w3.org/2000/svg" viewBox="0 0 1200 630" width="1200" height="630">
  <defs>
    <style>
      @import url('https://fonts.googleapis.com/css2?family=Schibsted+Grotesk:wght@500;600&amp;family=Inter:wght@400;500&amp;family=Fira+Mono:wght@500&amp;display=swap');
      .display { font-family: 'Schibsted Grotesk','Inter',sans-serif; }
      .body { font-family: 'Inter',sans-serif; }
      .mono { font-family: 'Fira Mono',monospace; }
    </style>
    <pattern id="dots" width="26" height="26" patternUnits="userSpaceOnUse">
      <circle cx="1.5" cy="1.5" r="1.5" fill="#e6e6e8"/>
    </pattern>
  </defs>

  <rect width="1200" height="630" fill="#ffffff"/>
  <rect width="1200" height="320" fill="url(#dots)" opacity="0.7"/>

  <!-- brand -->
  <g transform="translate(72,74)">
    <rect width="40" height="40" rx="10" fill="#0a0a0b"/>
    <path d="M7 20c4 0 4-11 8-11s4 22 8 22 4-16 8-16 3 5 8 5" transform="translate(-1,0)"
          fill="none" stroke="#7fee64" stroke-width="3" stroke-linecap="round" stroke-linejoin="round"/>
    <text x="56" y="28" class="display" font-size="28" font-weight="600" fill="#0a0a0b">Reverb</text>
  </g>

  <!-- eyebrow -->
  <text x="74" y="240" class="mono" font-size="20" letter-spacing="3" fill="#128a3e">OUTBOUND, MADE HUMAN</text>

  <!-- headline -->
  <text x="70" y="330" class="display" font-size="76" font-weight="500" fill="#0a0a0b" letter-spacing="-1">Build the distribution</text>
  <text x="70" y="412" class="display" font-size="76" font-weight="500" fill="#0a0a0b" letter-spacing="-1">you actually own.</text>

  <!-- subline -->
  <text x="74" y="476" class="body" font-size="27" fill="#6b7280">Outreach in your voice. You send.</text>

  <!-- accent rule -->
  <rect x="74" y="520" width="64" height="6" rx="3" fill="#7fee64"/>

  <!-- mini draft card -->
  <g transform="translate(820,150)">
    <rect width="312" height="330" rx="18" fill="#ffffff" stroke="#e8e8ea"/>
    <rect width="312" height="46" rx="18" fill="#fafafa"/>
    <rect y="30" width="312" height="16" fill="#fafafa"/>
    <circle cx="24" cy="23" r="5" fill="#ff5f57"/><circle cx="42" cy="23" r="5" fill="#febc2e"/><circle cx="60" cy="23" r="5" fill="#28c840"/>
    <text x="84" y="28" class="mono" font-size="13" fill="#6b7280">reverb · draft ready</text>

    <rect x="20" y="66" width="272" height="78" rx="12" fill="#fafafa" stroke="#efeff1"/>
    <text x="34" y="90" class="mono" font-size="11" fill="#6b7280">ORIGINAL · @LEVELSIO</text>
    <text x="34" y="118" class="body" font-size="15" fill="#3a3a3e">Just hit $200K MRR. Solo.</text>

    <rect x="20" y="156" width="272" height="96" rx="12" fill="#f1fdee" stroke="#cdf0d2"/>
    <text x="34" y="180" class="mono" font-size="11" fill="#6b7280">REVERB DRAFT · IN YOUR VOICE</text>
    <text x="34" y="206" class="body" font-size="15" fill="#0a0a0b">Distribution was the</text>
    <text x="34" y="228" class="body" font-size="15" fill="#0a0a0b">product the whole time.</text>

    <rect x="20" y="268" width="84" height="40" rx="10" fill="#7fee64"/>
    <text x="42" y="293" class="body" font-size="14" font-weight="500" fill="#000">Post</text>
    <rect x="114" y="268" width="84" height="40" rx="10" fill="#fff" stroke="#e8e8ea"/>
    <text x="138" y="293" class="body" font-size="14" font-weight="500" fill="#3a3a3e">Edit</text>
    <rect x="208" y="268" width="84" height="40" rx="10" fill="#fff" stroke="#e8e8ea"/>
    <text x="232" y="293" class="body" font-size="14" font-weight="500" fill="#3a3a3e">Skip</text>
  </g>
</svg>
