<svg xmlns="http://www.w3.org/2000/svg" viewBox="-2.5 260.8 1958.2 1474.9"><path fill="#46110b" d="M1883.9,676.6c1.3-15.5,3.5-30.9,2.4-45.6-.7-9.4-3-19.1-9-26.5-15.8-18.1-39.8-22-65.4-29.8-9.9-2.8-20.3-6.1-31.1-9.3-218.7-61.4-432.4-141.8-654-192.4-35.4-8.3-66.3-15.1-100-21.3-12.4-2.4-23.6-4.1-36.3-5.2-103.8-11-213.8-15.1-318.8-10h-.2c-48.3,2.5-99.2,3.8-145.2,11.3-19.2,5-40.5,8.1-59.7,12.8-11.1,3.1-22.9,5.3-34.2,7.6-22.2,5.5-44,11.9-65.3,20.5-16.3,7.1-34.4,13.3-50.2,20.4-22,10.4-42.6,20.6-63.4,34.6-73.9,47.1-150.8,110.6-173,199.6-14.9,59.3-7.7,121.7-2.6,181.2,7.1,58.4,8.5,119.4,14.9,178,3.8,39.6,10.4,78.6,14.8,118.1,6.3,49.5,6.5,103.4,31,148.2,8.3,14.9,18.3,28.8,27.8,42.9,17.9,25.5,33.7,52.2,48.3,79.6,15.6,29.7,36.4,57.8,67.6,72.5,20.2,10.4,42.3,17.1,64.3,22.8,34.2,8.6,69.4,15,103.7,21.6,45.4,7.7,90.9,18.9,119.9,54.5,30.6,40.6,31.5,59.2,85.6,77.7,39.5,14.3,82.2,11.1,123.8,7.6,49.2-4.7,99.3-9.7,148.2-14.8,52-6.1,94.9-6.8,145.7,9.5,31.8,9.3,61.2,21.3,94.1,22.6,30.2,1.3,61.8-7,91.4-17.6,87.4-31.2,156.5-95.2,234.8-142.3,25.3-16.1,54.3-31.7,79.4-45.4,27.9-15.4,54-30.9,81.7-46.7,47.4-27.2,100-54.4,143.6-88.2,22.4-16.2,37.5-36.5,45.9-62,3.1-9.5,3.2-14.4,2.8-20.3-1.6-14.2-1.8-20.5.6-37.5,7.5-53.8,26.3-108.9,30.5-163.8,4.8-48.3-.1-96.1-2.1-144.1-2.3-40.6-3.1-81.4-.7-122.1,1.7-33.7,4.8-66.1,8.1-98.9Z"></path><g><path fill="#f5ece7" d="M779.5,417.6c-14.1,1.9-30.6,1.1-44.5,2.3-14,1.2-39.2.7-53.1,2.3-24,2.9-43.2,3.3-67.2,6.2-18.3,2.5-42,7.1-60.2,10.2-17.1,3.3-36.6,12.9-53.7,16.6-29,6.5-56.6,19.7-84.3,30.5-11.5,4.2-34.9,14.3-45.1,11.1-5.7-2.5.5-11,4.6-16.5,8.6-10.9,20.1-19.7,31.2-27.9,14.5-10.9,30.4-17.7,47.3-24.4,11-4.6,22.3-8.6,33.6-12.2,24.8-7.8,48.9-15.7,74.6-19.1,30.4-4.7,63.1-8.3,93.6-9.4,72.5-1.5,84.8-4.3,157.4-3.9,13.2.6,78.4,1.7,91.2,4.3l11,1.5c7.2,1.2,12.2,1.4,19.8,3.9,3.5.3,25.7,4.9,29.2,5.3,21.5,2.2,27.1,4.5,48.3,8.5,20.1,3.8,37.8,8.9,57.3,11.1,3.5.4,21.5,4.5,24,6.3,15.7,2.7,16.7,4.2,32.1,8.3,13.5,3.7,26.7,8.9,39.8,14,58.7,23.9,119.6,42.6,176.5,71h.2c10.2,5.1,30.4,13.7,33.9,22.3,1.7,6.1-6.5,7.1-13.6,7.2-16.5-.6-33.2-4.8-49.4-7.6-10-1.9-19.9-4.5-29.7-7.6-59.1-19.1-117.1-41.5-174.7-64.9-14.4-5.7-26-9.2-40.7-14-2.8-.9-9.4-2.9-11.8-3.2-20.5-2.9-39.4-7.2-59.7-11.2-39.5-7.8-63.1-14.2-104.1-17.2-26-1.9-38-2.9-64.1-3.8-10.4,1.4-37.8-1.5-49.5,0Z"></path><path fill="#f5ece7" d="M1020.8,953.3c13.9,9.2,7,13.4-7.3,13.1-10.8-.2-21.4-2-32.1-3.9-45.8-9.5-91.2-21-137.2-29.4-22-4.2-44.1-8.1-65.9-13.2-148.3-39.7-299-77.4-445.3-127.1-43.4-15.2-86.9-30.5-129.7-47.4-21.4-8.8-43.1-17.9-61.5-32-35-25.3-47.8-65.8-17-100.1,7.8-8,22.1-20.4,26.9-7.2h0c3.3,11.1,1.8,23.4,5.6,36.5,8.3,29.2,36.6,44.1,62.1,57.4,91.5,45.4,194.7,60.6,290,95.9,15.8,5.8,31.6,11.7,47.5,16.9,28,9.2,57.1,16.8,86,23.2,42,9,83.6,14.3,124.4,27.5,29.1,9,58.1,18.5,87.3,27.3,56.6,17.9,114.2,33.4,166.3,62.4Z"></path><path fill="#f5ece7" d="M546.1,1448.8c12.2,9.8,7.3,17.9-8.1,16.6-4.8-.3-10.6-1.6-15.7-2.8-38-9.1-76.3-16-114.8-22.2-23-3.7-46.2-5.9-69.3-9.3-23.1-3.1-43.9-11.2-57.3-31.3-4.8-6.7-11.1-18.3-5.8-25.3h0c4.6-6.6,16.1-3.9,23.3-1.1,13.7,5.3,27,13.4,41.9,17,49.8,12.1,99.2,25.7,149,38,14.1,3.6,28.7,6.9,42.2,12.3,5.4,2.2,10.6,5,14.5,8.1Z"></path><path fill="#f5ece7" d="M478.9,1353.3c57.6,21,15.4,21-14.5,12.2-84.8-23.1-173.1-48.3-246.8-97.3-42.2-28.5-53-80.3-58.2-127.5-7.3-72.3-13.5-146.8-10.1-219.1,5.3-35.4,22.1,8.1,22.1,23.5,1.9,21.3,4,43,6.7,63.9v.2c5.5,33.6,2.8,69.6,9,103.4,12.6,73,46.2,136.9,112,174.6,55.4,32.4,119.9,44.8,179.9,66.2Z"></path></g><path fill="#f5ece7" d="M1132.7,1508.5c1.2,45.2-25,66.2-67.7,71-32.6,4.2-64.4-7.9-96.8-5.6-20.4,1.7-39.8,4.7-60.4,7.5-22.2,2.5-43.7,6.9-65.3,12.9-25.5,6.1-51.4,12.7-77,16.5-25.1,3.6-51.5,5.1-76.4-.9-16.4-4-31.8-13.8-42.8-27-4.2-5.2-9.2-11.9-8.4-18.4,1.8-7.4,13.5-3.8,20.3-2.2,7.9,2.1,17.1,5.3,26,7.1,11.3,2.3,22.8,3,34.5,3.3,18.2.3,36.6.2,54.6-.6,31.8-1,53.2-11.1,80.6-25.8,17.1-8.8,36.1-15,54.7-17.9,12.8-2,25.6-1.9,38.3-1.3,7.9.3,16,1,23.9,1.6,14.5.9,30.2.9,45,1.1,13.5,0,27.1-.5,40.2-3.9,21.2-5.9,41.5-18.9,48.5-41.2,5.1-14.4,4-33.1,7.8-47,1.7-6.1,3.9-10.9,7-6.8h0c6.2,10.3,8.4,26,9.7,38.4,1.5,13.1,3.6,26,3.7,39.2Z"></path><path fill="#f5ece7" d="M1825,1037.9c10.8,10.9,2.8,32.5-.2,46.5-3.5,14.5-7.7,28.8-11.5,43.1-6.2,23.2-11.4,45.5-13.4,69.6-1.7,17.4-1,35.6-6.4,52.4-18,57.4-106.8,89.7-156.4,117.1-76.3,41.7-151,86.5-222.9,135.2-33.1,22.8-65.4,46.7-98.6,69.2-23.3,16.2-89.3,60.7-116.1,44-5.9-4.6-6.7-12.6-6.3-19.6,4.6-65.6.9-157,2.3-222.3,0-34.3,22.8-11.5,39.3-.8,29,23.1,61.6,22,85.4-7.3,12-14.2,18.5-32.2,29.3-47.2,12.5-18.4,32.1-29.3,49.8-42,13.6-8.7,26.5-25.2,43.6-24.3,14.5,2.7,20.9,21.6,26.4,34.3,5.9,14,12.5,27.9,22.5,39.3,17.4,19.9,48.1,25.9,71.8,14.1,25.5-11.9,40.8-39.5,44.4-66.5,3.6-21.9.3-45.1,4.5-66.9,7.3-42.8,57.2-47.1,88.3-66.2,39.6-21.3,43-62,75.6-87.3,9.9-7.8,22.5-14.5,34.6-16.6,5.9-1,10.6-.5,13.8,2.1h0Z"></path><path fill="#f5ece7" d="M1830.2,925.8c3,17.2,1,36.6-10.8,50.1-7.4,8.6-17,14.1-27.5,18.9-15.6,6.8-33,12-46.7,22.1-14.9,10.6-25.4,27-33.5,43.5-17.6,37.4-35.2,50.1-73.2,64-23.9,9.4-46.4,20.6-60.6,42.8-14.4,21.3-16.6,47.3-16.6,72.8,0,11.4.6,23.8-.6,34.5-1.4,11.2-4,22.4-13.3,28.3-11,5.9-21.8-1.6-28.7-11.8-10.6-16.9-13.7-38.8-24.2-56-10.9-18-31.1-30.3-52.1-29.1-29.1,0-48.1,25.5-69.9,41.2-22.8,16.6-44.6,25.9-59.1,52.3-6.7,11.2-11.5,24.4-18.4,35.3-15.4,24.1-34.3,4.9-50.8-6.4-10.4-7.5-25.5-11.3-33.9-19.4-13.1-12-12.1-32.2-3.5-46.6h0c7.2-13.4,21.7-19.8,34.4-28.2,12.7-8.2,23.8-18.3,34.6-29,47.3-50.5,65.9-51.5,131.2-63.3,26.7-5.2,53.5-13.1,77.3-26.9,24.9-13.6,46.7-33,73.1-43.8,21.9-10,46.2-11.9,68.7-20.2,24.4-9.1,44.3-27.3,62.2-45.8,26.6-26.6,47.9-58.7,79.1-80.8,19.6-13.6,57-36.7,62.9,1.4Z"></path><path fill="#f5ece7" d="M1831.7,685.2c1.7,16.4-2.1,32.4-3.6,48.7-2.2,21.4-2.6,43.8-6,64.9-1.1,7.9-2,15.4-2.4,23.3-.6,16.3-1.8,33.3-16.4,43.1-8.9,6.5-20.2,10.8-31.4,16.4-10.3,5.1-20.2,10.8-29.8,17-36.1,23.5-61.6,58.8-90.1,90.3-27.5,29.9-51.7,27.9-87.3,38.8-22,6.5-43.3,18.4-63.2,30.4-18.1,11.4-35.4,24.1-55.2,32-49.4,19.6-107.2,17.2-152.2,47.9-18.1,12.1-34.4,26.9-50.5,41.6-5.7,5.2-11.4,10.6-16.8,14.8-5.7,4.5-11,7.2-15.2,6.9-18.5-2.7-11-48.4-9.6-63v-.2c4.1-29,6.5-60.1,12.5-89.5,6.7-33.7,18.4-65.8,34.7-95.9,8.4-15.8,19-30.1,31.3-43.1,12.5-13.3,25.9-26.6,39.9-38,10.8-8.8,21.3-15.8,32.9-22.7,111.6-63.2,228.6-115.3,347-164.5,22.7-9.1,45-18.8,67.9-27.2,30.6-11.4,58.6-9,63.5,28Z"></path></svg>
